<svg width="16" height="14" viewBox="0 0 16 14" fill="none" xmlns="http://www.w3.org/2000/svg">
<path fill-rule="evenodd" clip-rule="evenodd" d="M13.2999 1.7201C13.465 1.79483 13.6068 1.91305 13.7099 2.0621C15.4199 4.5321 16.2799 7.3521 15.9599 10.5921C15.9462 10.7323 15.9031 10.868 15.8333 10.9904C15.7635 11.1127 15.6686 11.219 15.5549 11.3021C14.3949 12.1531 13.0849 12.8021 11.7049 13.2121C11.51 13.2708 11.3018 13.2681 11.1085 13.2042C10.9153 13.1403 10.7464 13.0184 10.6249 12.8551C10.3831 12.5322 10.161 12.1949 9.95991 11.8451C8.68388 12.1135 7.36595 12.1135 6.08991 11.8451C5.89146 12.1963 5.66963 12.5337 5.42591 12.8551C5.3028 13.0192 5.13217 13.1415 4.93718 13.2054C4.74219 13.2693 4.53228 13.2716 4.33591 13.2121C2.9541 12.797 1.65243 12.1512 0.485913 11.3021C0.372089 11.2188 0.277161 11.1125 0.207362 10.9899C0.137563 10.8674 0.0944698 10.7315 0.0809128 10.5911C-0.188087 7.8011 0.357913 4.9511 2.33091 2.0711C2.43391 1.9201 2.57691 1.8001 2.74391 1.7241C3.74291 1.2721 4.79391 0.9501 5.88391 0.7671C6.29891 0.6971 6.71391 0.8951 6.92391 1.2611L7.01291 1.4221C7.68625 1.3641 8.36291 1.3641 9.04291 1.4221L9.13091 1.2611C9.23223 1.08162 9.38652 0.937836 9.57269 0.849409C9.75885 0.760981 9.96779 0.732234 10.1709 0.7671C11.2509 0.9481 12.3109 1.2691 13.3109 1.7221L13.2999 1.7201ZM9.62991 2.4961C8.56567 2.33914 7.48416 2.33914 6.41991 2.4961C6.30955 2.24186 6.18605 1.99352 6.04991 1.7521C5.05191 1.9201 4.07991 2.2171 3.15991 2.6341C1.32991 5.3141 0.839913 7.9241 1.07991 10.4941C2.14991 11.2771 3.34991 11.8741 4.61991 12.2541C4.78515 12.0352 4.93902 11.8079 5.08091 11.5731C5.18625 11.3998 5.28525 11.2231 5.37791 11.0431C4.96373 10.8903 4.56384 10.7012 4.18291 10.4781C4.28291 10.4054 4.38058 10.3328 4.47591 10.2601C5.0782 10.5397 5.71119 10.7478 6.36191 10.8801C7.7403 11.1558 9.16584 11.0812 10.5079 10.6631C10.8636 10.5528 11.2111 10.4178 11.5479 10.2591C11.6439 10.3371 11.7416 10.4098 11.8409 10.4771C11.7477 10.5308 11.6537 10.5831 11.5589 10.6341C11.2628 10.7898 10.9572 10.9267 10.6439 11.0441C10.8001 11.3443 10.973 11.6354 11.1619 11.9161C11.2399 12.0294 11.3202 12.1418 11.4029 12.2531C12.6729 11.8731 13.8729 11.2781 14.9429 10.4931C15.2339 7.5131 14.4459 4.9231 12.8629 2.6331C11.9429 2.2161 10.9729 1.9211 9.97291 1.7541C9.83691 1.99543 9.71358 2.24343 9.60291 2.4981L9.62991 2.4961Z" fill="white"/>
</svg>
