<svg width="20" height="20" viewBox="0 0 20 20" fill="none" xmlns="http://www.w3.org/2000/svg">
<path fill-rule="evenodd" clip-rule="evenodd" d="M2 10.1378C2.00014 8.67443 2.44451 7.24213 3.27979 6.01281C4.11506 4.7835 5.30576 3.8094 6.70901 3.20738C8.11225 2.60537 9.66844 2.40102 11.1908 2.61886C12.7132 2.83669 14.1372 3.46746 15.2918 4.43548C16.4464 5.40349 17.2826 6.66763 17.7002 8.0762C18.1177 9.48478 18.0988 10.978 17.6457 12.3766C17.1926 13.7752 16.3246 15.0198 15.1458 15.9611C13.967 16.9024 12.5275 17.5004 11 17.6833V12.0389H13C13.2652 12.0389 13.5196 11.9388 13.7071 11.7605C13.8946 11.5823 14 11.3405 14 11.0884C14 10.8363 13.8946 10.5945 13.7071 10.4163C13.5196 10.238 13.2652 10.1378 13 10.1378H11V8.23674C11 7.98464 11.1054 7.74286 11.2929 7.5646C11.4804 7.38634 11.7348 7.28619 12 7.28619H12.5C12.7652 7.28619 13.0196 7.18604 13.2071 7.00778C13.3946 6.82952 13.5 6.58774 13.5 6.33564C13.5 6.08354 13.3946 5.84176 13.2071 5.6635C13.0196 5.48523 12.7652 5.38509 12.5 5.38509H12C11.2044 5.38509 10.4413 5.68553 9.87868 6.22032C9.31607 6.75511 9 7.48044 9 8.23674V10.1378H7C6.73478 10.1378 6.48043 10.238 6.29289 10.4163C6.10536 10.5945 6 10.8363 6 11.0884C6 11.3405 6.10536 11.5823 6.29289 11.7605C6.48043 11.9388 6.73478 12.0389 7 12.0389H9V17.6833C7.06661 17.4518 5.28861 16.5574 3.99975 15.1681C2.7109 13.7788 1.99982 11.9902 2 10.1378ZM10 19.6434C15.523 19.6434 20 15.3877 20 10.1378C20 4.88795 15.523 0.632324 10 0.632324C4.477 0.632324 0 4.88795 0 10.1378C0 15.3877 4.477 19.6434 10 19.6434Z" fill="white"/>
</svg>
