<svg width="93" height="100" viewBox="0 0 93 100" fill="none" xmlns="http://www.w3.org/2000/svg">
<g filter="url(#filter0_d_38_7733)">
<path d="M46.4941 89.9643C66.6493 89.9643 82.9882 83.4076 82.9882 75.3195C82.9882 67.2314 66.6493 60.6747 46.4941 60.6747C26.339 60.6747 10 67.2314 10 75.3195C10 83.4076 26.339 89.9643 46.4941 89.9643Z" fill="url(#paint0_linear_38_7733)"/>
</g>
<path opacity="0.2" d="M46.4943 62.3867C65.9309 62.3867 81.822 68.4829 82.9307 76.1755C82.9769 75.8863 83 75.6087 83 75.3195C83 67.2336 66.6585 60.6747 46.5059 60.6747C26.3533 60.6747 10.0118 67.2336 10.0118 75.3195C10.0118 75.6087 10.0349 75.8979 10.0811 76.1755C11.1667 68.4829 27.0578 62.3867 46.4943 62.3867Z" fill="black"/>
<path d="M70.0075 66.8403C64.3948 64.1103 55.9757 62.3751 46.575 62.3751C37.1743 62.3751 28.7668 64.1103 23.1426 66.8403H15.9592V75.0303C16.1094 81.89 29.76 87.4425 46.575 87.4425C63.39 87.4425 77.0522 81.89 77.2024 75.0303V66.8403H70.0075Z" fill="url(#paint1_linear_38_7733)"/>
<path d="M46.575 87.0724C29.76 87.0724 16.0978 81.5198 15.9476 74.6601V75.0303C16.1093 81.89 29.76 87.4425 46.575 87.4425C63.39 87.4425 77.0522 81.89 77.2023 75.0303V74.6601C77.0522 81.5198 63.4015 87.0724 46.575 87.0724Z" fill="black"/>
<path d="M46.575 79.3335C63.49 79.3335 77.2023 73.7401 77.2023 66.8403C77.2023 59.9405 63.49 54.3471 46.575 54.3471C29.66 54.3471 15.9476 59.9405 15.9476 66.8403C15.9476 73.7401 29.66 79.3335 46.575 79.3335Z" fill="url(#paint2_linear_38_7733)"/>
<path d="M46.4941 76.6614C61.4 76.6614 73.4836 72.1607 73.4836 66.6089C73.4836 61.0571 61.4 56.5565 46.4941 56.5565C31.5882 56.5565 19.5046 61.0571 19.5046 66.6089C19.5046 72.1607 31.5882 76.6614 46.4941 76.6614Z" fill="#FCFAFF"/>
<path d="M46.575 78.8823C29.8524 78.8823 16.2594 73.4108 15.9592 66.6089C15.9592 66.6899 15.9476 66.7593 15.9476 66.8403C15.9476 73.7462 29.656 79.3335 46.575 79.3335C63.4939 79.3335 77.2023 73.7347 77.2023 66.8403C77.2023 66.7593 77.2023 66.6899 77.1908 66.6089C76.902 73.4108 63.3091 78.8823 46.575 78.8823Z" fill="white"/>
<path d="M59.8791 62.3751C56.6917 60.825 51.9105 59.8418 46.5749 59.8418C41.2394 59.8418 36.4582 60.825 33.2708 62.3751H29.1825V67.0254C29.2633 70.9237 37.0241 74.0702 46.5634 74.0702C56.1142 74.0702 63.8635 70.9237 63.9443 67.0254V62.3751H59.8791Z" fill="url(#paint3_linear_38_7733)"/>
<path d="M46.575 73.8619C37.0242 73.8619 29.2749 70.7155 29.1941 66.8171V67.0254C29.2749 70.9237 37.0357 74.0701 46.575 74.0701C56.1258 74.0701 63.875 70.9237 63.9559 67.0254V66.8171C63.875 70.7155 56.1258 73.8619 46.575 73.8619Z" fill="black"/>
<path d="M46.5749 69.4662C56.1805 69.4662 63.9674 66.2914 63.9674 62.3751C63.9674 58.4588 56.1805 55.2841 46.5749 55.2841C36.9694 55.2841 29.1825 58.4588 29.1825 62.3751C29.1825 66.2914 36.9694 69.4662 46.5749 69.4662Z" fill="url(#paint4_linear_38_7733)"/>
<path d="M46.5288 67.9508C54.9927 67.9508 61.854 65.3975 61.854 62.2479C61.854 59.0982 54.9927 56.545 46.5288 56.545C38.0649 56.545 31.2036 59.0982 31.2036 62.2479C31.2036 65.3975 38.0649 67.9508 46.5288 67.9508Z" fill="#FCFAFF"/>
<path d="M46.575 69.2117C37.0819 69.2117 29.3558 66.1 29.1941 62.2479C29.1941 62.2942 29.1941 62.3289 29.1941 62.3751C29.1941 66.2966 36.978 69.4662 46.5865 69.4662C56.1951 69.4662 63.979 66.285 63.979 62.3751C63.979 62.3289 63.979 62.2942 63.979 62.2479C63.7942 66.1 56.0796 69.2117 46.575 69.2117Z" fill="white"/>
<path opacity="0.4" d="M19.5046 5.09138V66.609C19.5046 72.1615 31.5847 76.6614 46.4941 76.6614C61.4036 76.6614 73.4836 72.1615 73.4836 66.609V5.09138H19.5046Z" fill="url(#paint5_linear_38_7733)"/>
<path d="M30.9841 34.5199L47.0254 25.925L63.9674 34.7743L47.0254 44.5491L30.9841 34.5199Z" fill="url(#paint6_linear_38_7733)"/>
<path opacity="0.7" d="M47.0254 0.45269L30.9841 34.5199L47.0254 44.5491V0.45269Z" fill="url(#paint7_linear_38_7733)"/>
<path opacity="0.7" d="M47.0254 0.45269V44.5491L63.9674 34.7744L47.0254 0.45269Z" fill="url(#paint8_linear_38_7733)"/>
<path d="M30.9841 34.5199L47.0254 58.0372V44.5492L30.9841 34.5199Z" fill="url(#paint9_linear_38_7733)"/>
<path d="M47.0254 58.0372L63.9674 34.7744L47.0254 44.5491V58.0372Z" fill="url(#paint10_linear_38_7733)"/>
<path opacity="0.5" d="M63.9097 34.6471L47.0254 44.3872L31.0419 34.3926L30.9841 34.5199L47.0254 44.5491V58.0372L47.1871 57.829V44.5491L63.9674 34.7743L63.9097 34.6471Z" fill="white"/>
<defs>
<filter id="filter0_d_38_7733" x="0" y="50.6747" width="92.9882" height="49.2897" filterUnits="userSpaceOnUse" color-interpolation-filters="sRGB">
<feFlood flood-opacity="0" result="BackgroundImageFix"/>
<feColorMatrix in="SourceAlpha" type="matrix" values="0 0 0 0 0 0 0 0 0 0 0 0 0 0 0 0 0 0 127 0" result="hardAlpha"/>
<feOffset/>
<feGaussianBlur stdDeviation="5"/>
<feComposite in2="hardAlpha" operator="out"/>
<feColorMatrix type="matrix" values="0 0 0 0 0.172549 0 0 0 0 0.556863 0 0 0 0 0.984314 0 0 0 1 0"/>
<feBlend mode="normal" in2="BackgroundImageFix" result="effect1_dropShadow_38_7733"/>
<feBlend mode="normal" in="SourceGraphic" in2="effect1_dropShadow_38_7733" result="shape"/>
</filter>
<linearGradient id="paint0_linear_38_7733" x1="65.7939" y1="79.7129" x2="56.8205" y2="54.1816" gradientUnits="userSpaceOnUse">
<stop stop-color="#34D3FF"/>
<stop offset="1" stop-color="#2C8EFB"/>
</linearGradient>
<linearGradient id="paint1_linear_38_7733" x1="15.9537" y1="74.9095" x2="77.2046" y2="74.9095" gradientUnits="userSpaceOnUse">
<stop stop-color="#F1F2FB"/>
<stop offset="1" stop-color="#E2E6F7"/>
</linearGradient>
<linearGradient id="paint2_linear_38_7733" x1="15.9536" y1="66.8395" x2="77.2046" y2="66.8395" gradientUnits="userSpaceOnUse">
<stop stop-color="#F2F0FB"/>
<stop offset="1" stop-color="#F4F3FB"/>
</linearGradient>
<linearGradient id="paint3_linear_38_7733" x1="29.1909" y1="66.9568" x2="63.9673" y2="66.9568" gradientUnits="userSpaceOnUse">
<stop stop-color="#F1F2FB"/>
<stop offset="1" stop-color="#E2E6F7"/>
</linearGradient>
<linearGradient id="paint4_linear_38_7733" x1="29.1909" y1="62.3749" x2="63.9673" y2="62.3749" gradientUnits="userSpaceOnUse">
<stop stop-color="#F2F0FB"/>
<stop offset="1" stop-color="#F4F3FB"/>
</linearGradient>
<linearGradient id="paint5_linear_38_7733" x1="46.4978" y1="76.6648" x2="49.107" y2="17.8336" gradientUnits="userSpaceOnUse">
<stop stop-color="#34D3FF"/>
<stop offset="1" stop-color="#111417" stop-opacity="0.5"/>
</linearGradient>
<linearGradient id="paint6_linear_38_7733" x1="30.9847" y1="35.2366" x2="63.9673" y2="35.2366" gradientUnits="userSpaceOnUse">
<stop stop-color="#4870FA"/>
<stop offset="1" stop-color="#96B3F9"/>
</linearGradient>
<linearGradient id="paint7_linear_38_7733" x1="43.2464" y1="29.1154" x2="27.9482" y2="22.7613" gradientUnits="userSpaceOnUse">
<stop stop-color="#34D3FF"/>
<stop offset="1" stop-color="#2C8EFB"/>
</linearGradient>
<linearGradient id="paint8_linear_38_7733" x1="59.9763" y1="29.1154" x2="44.0888" y2="22.146" gradientUnits="userSpaceOnUse">
<stop stop-color="#34D3FF"/>
<stop offset="1" stop-color="#2C8EFB"/>
</linearGradient>
<linearGradient id="paint9_linear_38_7733" x1="43.2464" y1="49.8061" x2="32.0811" y2="41.1106" gradientUnits="userSpaceOnUse">
<stop stop-color="#34D3FF"/>
<stop offset="1" stop-color="#2C8EFB"/>
</linearGradient>
<linearGradient id="paint10_linear_38_7733" x1="59.9763" y1="49.8952" x2="48.776" y2="40.5818" gradientUnits="userSpaceOnUse">
<stop stop-color="#34D3FF"/>
<stop offset="1" stop-color="#2C8EFB"/>
</linearGradient>
</defs>
</svg>
