<svg width="19" height="18" viewBox="0 0 19 18" fill="none" xmlns="http://www.w3.org/2000/svg">
<path d="M7.9 15.8543C5.1568 16.7799 2.8712 15.8543 1.5 13" stroke="url(#paint0_linear_215_4295)" stroke-width="1.5" stroke-linecap="round" stroke-linejoin="round"/>
<path d="M7.8999 17V14.4065C7.8999 13.9281 8.0471 13.5121 8.2839 13.1361C8.4471 12.8785 8.3351 12.5121 8.0415 12.4321C5.6071 11.7617 3.8999 10.6858 3.8999 7.11626C3.8999 6.18828 4.2039 5.3163 4.7383 4.55632C4.8711 4.36753 4.9383 4.27313 4.9543 4.18833C4.9703 4.10193 4.9423 3.99074 4.8863 3.76674C4.6599 2.85796 4.6751 1.89239 5.0143 1.02281C5.0143 1.02281 5.7159 0.793218 7.3135 1.79079C7.6783 2.01879 7.8607 2.13318 8.0215 2.15878C8.1823 2.18438 8.3967 2.13078 8.8255 2.02359C9.4386 1.87159 10.0683 1.79661 10.6999 1.80039C11.3315 1.79769 11.9611 1.87293 12.5743 2.02439C13.0031 2.13158 13.2183 2.18438 13.3791 2.15958C13.5391 2.13398 13.7215 2.01959 14.0863 1.79159C15.6839 0.794018 16.3855 1.02361 16.3855 1.02361C16.7247 1.89319 16.7399 2.85876 16.5135 3.76754C16.4575 3.99154 16.4303 4.10353 16.4463 4.18833C16.4623 4.27313 16.5287 4.36833 16.6615 4.55712C17.1959 5.3171 17.4999 6.18908 17.4999 7.11706C17.4999 10.6866 15.7927 11.7625 13.3583 12.4313C13.0647 12.5121 12.9527 12.8785 13.1159 13.1353C13.3527 13.5113 13.4999 13.9273 13.4999 14.4065V17" stroke="url(#paint1_linear_215_4295)" stroke-width="1.5" stroke-linecap="round" stroke-linejoin="round"/>
<defs>
<linearGradient id="paint0_linear_215_4295" x1="6.39231" y1="15.0801" x2="5.2406" y2="12.4504" gradientUnits="userSpaceOnUse">
<stop stop-color="#34D3FF"/>
<stop offset="1" stop-color="#2C8EFB"/>
</linearGradient>
<linearGradient id="paint1_linear_215_4295" x1="14.2961" y1="11.4" x2="6.46466" y2="3.7996" gradientUnits="userSpaceOnUse">
<stop stop-color="#34D3FF"/>
<stop offset="1" stop-color="#2C8EFB"/>
</linearGradient>
</defs>
</svg>
