<svg width="18" height="18" viewBox="0 0 18 18" fill="none" xmlns="http://www.w3.org/2000/svg">
<path d="M7.4 15.8543C4.6568 16.7799 2.3712 15.8543 1 13" stroke="white" stroke-width="1.5" stroke-linecap="round" stroke-linejoin="round"/>
<path d="M7.3999 17V14.4065C7.3999 13.9281 7.5471 13.5121 7.7839 13.1361C7.9471 12.8785 7.8351 12.5121 7.5415 12.4321C5.1071 11.7617 3.3999 10.6858 3.3999 7.11626C3.3999 6.18828 3.7039 5.3163 4.2383 4.55632C4.3711 4.36753 4.4383 4.27313 4.4543 4.18833C4.4703 4.10193 4.4423 3.99074 4.3863 3.76674C4.1599 2.85796 4.1751 1.89239 4.5143 1.02281C4.5143 1.02281 5.2159 0.793218 6.8135 1.79079C7.1783 2.01879 7.3607 2.13318 7.5215 2.15878C7.6823 2.18438 7.8967 2.13078 8.3255 2.02359C8.9386 1.87159 9.56825 1.79661 10.1999 1.80039C10.8315 1.79769 11.4611 1.87293 12.0743 2.02439C12.5031 2.13158 12.7183 2.18438 12.8791 2.15958C13.0391 2.13398 13.2215 2.01959 13.5863 1.79159C15.1839 0.794018 15.8855 1.02361 15.8855 1.02361C16.2247 1.89319 16.2399 2.85876 16.0135 3.76754C15.9575 3.99154 15.9303 4.10353 15.9463 4.18833C15.9623 4.27313 16.0287 4.36833 16.1615 4.55712C16.6959 5.3171 16.9999 6.18908 16.9999 7.11706C16.9999 10.6866 15.2927 11.7625 12.8583 12.4313C12.5647 12.5121 12.4527 12.8785 12.6159 13.1353C12.8527 13.5113 12.9999 13.9273 12.9999 14.4065V17" stroke="white" stroke-width="1.5" stroke-linecap="round" stroke-linejoin="round"/>
</svg>
