<svg width="16" height="14" viewBox="0 0 16 14" fill="none" xmlns="http://www.w3.org/2000/svg">
<path d="M8.0008 5.10387C7.36428 5.10387 6.75383 5.31926 6.30374 5.70267C5.85366 6.08608 5.6008 6.60609 5.6008 7.14831C5.6008 7.69053 5.85366 8.21054 6.30374 8.59395C6.75383 8.97736 7.36428 9.19276 8.0008 9.19276C8.63732 9.19276 9.24777 8.97736 9.69786 8.59395C10.1479 8.21054 10.4008 7.69053 10.4008 7.14831C10.4008 6.60609 10.1479 6.08608 9.69786 5.70267C9.24777 5.31926 8.63732 5.10387 8.0008 5.10387ZM8.0008 3.7409C9.06167 3.7409 10.0791 4.0999 10.8292 4.73891C11.5794 5.37792 12.0008 6.24461 12.0008 7.14831C12.0008 8.05201 11.5794 8.9187 10.8292 9.55771C10.0791 10.1967 9.06167 10.5557 8.0008 10.5557C6.93993 10.5557 5.92252 10.1967 5.17237 9.55771C4.42223 8.9187 4.0008 8.05201 4.0008 7.14831C4.0008 6.24461 4.42223 5.37792 5.17237 4.73891C5.92252 4.0999 6.93993 3.7409 8.0008 3.7409ZM13.2008 3.57053C13.2008 3.79646 13.0954 4.01313 12.9079 4.17288C12.7204 4.33264 12.466 4.42239 12.2008 4.42239C11.9356 4.42239 11.6812 4.33264 11.4937 4.17288C11.3062 4.01313 11.2008 3.79646 11.2008 3.57053C11.2008 3.34461 11.3062 3.12794 11.4937 2.96818C11.6812 2.80843 11.9356 2.71868 12.2008 2.71868C12.466 2.71868 12.7204 2.80843 12.9079 2.96818C13.0954 3.12794 13.2008 3.34461 13.2008 3.57053ZM8.0008 1.69646C6.0216 1.69646 5.6984 1.70123 4.7776 1.73599C4.1504 1.7612 3.7296 1.83276 3.3392 1.96224C3.01267 2.06471 2.71738 2.22845 2.4752 2.44132C2.22502 2.64755 2.03253 2.8991 1.912 3.17732C1.76 3.51124 1.676 3.86902 1.6472 4.40262C1.6056 5.15498 1.6 5.41803 1.6 7.14831C1.6 8.83498 1.6056 9.10961 1.6464 9.894C1.676 10.4276 1.76 10.7867 1.9112 11.1186C2.0472 11.4151 2.2072 11.6284 2.4728 11.8546C2.7424 12.0836 2.9928 12.2206 3.3368 12.3337C3.732 12.4639 4.1528 12.5361 4.7768 12.5606C5.66 12.5961 5.9688 12.6002 8 12.6002C9.98 12.6002 10.3024 12.5954 11.2232 12.5606C11.8488 12.5354 12.2696 12.4639 12.6608 12.3351C12.9873 12.2326 13.2826 12.0689 13.5248 11.856C13.7944 11.627 13.9552 11.4137 14.088 11.12C14.24 10.7847 14.3248 10.4262 14.3536 9.89332C14.3952 9.14164 14.4 8.87791 14.4 7.14831C14.4 5.46233 14.3944 5.18701 14.3536 4.40262C14.324 3.8697 14.2392 3.50988 14.088 3.17732C13.9677 2.89916 13.7755 2.64762 13.5256 2.44132C13.2835 2.2282 12.9882 2.06423 12.6616 1.96156C12.2696 1.83207 11.8488 1.76052 11.2232 1.73599C10.3408 1.70055 10.032 1.69646 8 1.69646M8 0.333496C10.1736 0.333496 10.4448 0.340311 11.2984 0.374385C12.1496 0.408459 12.7304 0.522267 13.24 0.691274C13.768 0.86437 14.2128 1.0988 14.6576 1.47702C15.0646 1.81758 15.3793 2.2297 15.58 2.68461C15.7776 3.11871 15.912 3.61347 15.952 4.33924C15.9896 5.0657 16 5.29673 16 7.14831C16 8.9999 15.992 9.23092 15.952 9.95738C15.912 10.6838 15.7776 11.1772 15.58 11.612C15.3793 12.0669 15.0646 12.479 14.6576 12.8196C14.2578 13.1663 13.774 13.4344 13.24 13.6053C12.7304 13.7737 12.1496 13.8882 11.2984 13.9222C10.4448 13.9543 10.1736 13.9631 8 13.9631C5.8264 13.9631 5.5552 13.9563 4.7016 13.9222C3.8504 13.8882 3.2704 13.7737 2.76 13.6053C2.22598 13.4344 1.74219 13.1663 1.3424 12.8196C0.935445 12.479 0.620653 12.0669 0.42 11.612C0.2216 11.1779 0.088 10.6832 0.048 9.95738C0.00959995 9.23092 0 8.9999 0 7.14831C0 5.29673 0.00799995 5.0657 0.048 4.33924C0.088 3.61278 0.2216 3.11939 0.42 2.68461C0.620653 2.2297 0.935445 1.81758 1.3424 1.47702C1.74219 1.13036 2.22598 0.8622 2.76 0.691274C3.2696 0.522267 3.8496 0.408459 4.7016 0.374385C5.556 0.342355 5.8272 0.333496 8.0008 0.333496" fill="white"/>
</svg>
