<svg width="14" height="15" viewBox="0 0 14 15" fill="none" xmlns="http://www.w3.org/2000/svg">
<path d="M5.86667 13H2.33333C1.97971 13 1.64057 12.8595 1.39052 12.6095C1.14048 12.3594 1 12.0203 1 11.6667V2.33333C1 1.97971 1.14048 1.64057 1.39052 1.39052C1.64057 1.14048 1.97971 1 2.33333 1H11.6667C12.0203 1 12.3594 1.14048 12.6095 1.39052C12.8595 1.64057 13 1.97971 13 2.33333V9L10.9333 6.93333C10.6825 6.68745 10.3447 6.55051 9.99341 6.55225C9.64214 6.554 9.30575 6.6943 9.05733 6.94267L3 13M8.33333 12L10.3333 10M10.3333 10L12.3333 12M10.3333 10V13.6667M6.33333 5C6.33333 5.73638 5.73638 6.33333 5 6.33333C4.26362 6.33333 3.66667 5.73638 3.66667 5C3.66667 4.26362 4.26362 3.66667 5 3.66667C5.73638 3.66667 6.33333 4.26362 6.33333 5Z" stroke="white" stroke-width="1.5" stroke-linecap="round" stroke-linejoin="round"/>
</svg>
