<svg width="16" height="16" viewBox="0 0 16 16" fill="none" xmlns="http://www.w3.org/2000/svg">
<path d="M11.3233 8.99991C11.3233 9.25585 11.2217 9.5013 11.0407 9.68227C10.8597 9.86324 10.6143 9.96491 10.3583 9.96491C10.1024 9.96491 9.85695 9.86324 9.67598 9.68227C9.49501 9.5013 9.39334 9.25585 9.39334 8.99991C9.39334 8.74398 9.49501 8.49853 9.67598 8.31755C9.85695 8.13658 10.1024 8.03491 10.3583 8.03491C10.6143 8.03491 10.8597 8.13658 11.0407 8.31755C11.2217 8.49853 11.3233 8.74398 11.3233 8.99991ZM5.63801 9.96458C5.89385 9.96458 6.13922 9.86294 6.32013 9.68203C6.50104 9.50112 6.60267 9.25576 6.60267 8.99991C6.60267 8.74407 6.50104 8.4987 6.32013 8.31779C6.13922 8.13688 5.89385 8.03525 5.63801 8.03525C5.38216 8.03525 5.13679 8.13688 4.95588 8.31779C4.77497 8.4987 4.67334 8.74407 4.67334 8.99991C4.67334 9.25576 4.77497 9.50112 4.95588 9.68203C5.13679 9.86294 5.38216 9.96458 5.63801 9.96458ZM5.90001 11.0859C5.78803 11.02 5.65481 11.0003 5.52856 11.031C5.40231 11.0616 5.29294 11.1402 5.22362 11.2501C5.1543 11.36 5.13046 11.4925 5.15716 11.6196C5.18387 11.7468 5.25901 11.8585 5.36667 11.9312L5.59667 12.0766C6.31534 12.5299 7.14766 12.7704 7.99734 12.7704C8.84702 12.7704 9.67934 12.5299 10.398 12.0766L10.628 11.9319C10.6836 11.8969 10.7318 11.8513 10.7697 11.7976C10.8077 11.744 10.8347 11.6834 10.8492 11.6194C10.8638 11.5553 10.8656 11.489 10.8545 11.4242C10.8434 11.3595 10.8197 11.2975 10.7847 11.2419C10.7497 11.1863 10.704 11.1382 10.6504 11.1002C10.5968 11.0622 10.5362 11.0352 10.4721 11.0207C10.408 11.0061 10.3417 11.0043 10.277 11.0154C10.2122 11.0265 10.1503 11.0502 10.0947 11.0852L9.86467 11.2306C9.30568 11.5832 8.65826 11.7703 7.99734 11.7703C7.33642 11.7703 6.689 11.5832 6.13001 11.2306L5.90001 11.0859Z" fill="white"/>
<path fill-rule="evenodd" clip-rule="evenodd" d="M13.3066 1.16675C12.7246 1.16675 12.2159 1.48608 11.9479 1.95875L9.54789 1.46608C9.43478 1.44291 9.31715 1.4596 9.21495 1.51332C9.11275 1.56703 9.03229 1.65445 8.98722 1.76075C8.71322 2.40475 8.30256 3.38142 7.95922 4.21742C7.83789 4.51342 7.72456 4.79275 7.62922 5.03408C6.26456 5.08875 5.00056 5.44542 3.96656 6.02342C3.80012 5.74431 3.56954 5.5089 3.29393 5.33673C3.01832 5.16456 2.70564 5.06059 2.38181 5.03343C2.05798 5.00627 1.73235 5.05672 1.43191 5.18058C1.13148 5.30444 0.864907 5.49815 0.65431 5.74564C0.443712 5.99313 0.295158 6.28726 0.22097 6.60364C0.146782 6.92003 0.149099 7.24954 0.227728 7.56485C0.306356 7.88016 0.459031 8.17217 0.673087 8.41668C0.887144 8.66118 1.15641 8.85112 1.45856 8.97075C1.36967 9.29075 1.325 9.62208 1.32456 9.96475C1.32456 11.3927 2.13056 12.6394 3.34122 13.5094C4.55322 14.3807 6.20122 14.9034 7.99989 14.9034C9.79789 14.9034 11.4466 14.3807 12.6586 13.5101C13.8692 12.6394 14.6752 11.3927 14.6752 9.96475C14.6752 9.62208 14.6286 9.29008 14.5419 8.97141C14.8439 8.85173 15.1131 8.66177 15.3271 8.41728C15.541 8.17279 15.6937 7.88081 15.7722 7.56556C15.8508 7.25031 15.8531 6.92087 15.779 6.60455C15.7048 6.28823 15.5563 5.99415 15.3458 5.74669C15.1352 5.49922 14.8688 5.30551 14.5684 5.18161C14.2681 5.05772 13.9425 5.0072 13.6187 5.03425C13.295 5.06131 12.9823 5.16515 12.7067 5.33717C12.4311 5.5092 12.2004 5.74445 12.0339 6.02342C11.0826 5.49208 9.93722 5.14742 8.69856 5.05275C8.75722 4.90786 8.81945 4.75586 8.88522 4.59675C9.16389 3.91608 9.48922 3.14008 9.74789 2.52808L11.7599 2.94142C11.8007 3.23851 11.9262 3.51757 12.1214 3.74527C12.3165 3.97297 12.5731 4.13967 12.8605 4.22546C13.1478 4.31126 13.4538 4.31252 13.7419 4.22909C14.0299 4.14567 14.2879 3.98109 14.4849 3.75501C14.6819 3.52893 14.8097 3.25092 14.853 2.95416C14.8963 2.65741 14.8532 2.35448 14.729 2.08154C14.6047 1.80861 14.4045 1.57721 14.1523 1.41499C13.9 1.25278 13.6064 1.1666 13.3066 1.16675ZM12.7452 2.72808C12.7452 2.57912 12.8044 2.43626 12.9097 2.33092C13.0151 2.22559 13.1579 2.16641 13.3069 2.16641C13.4559 2.16641 13.5987 2.22559 13.7041 2.33092C13.8094 2.43626 13.8686 2.57912 13.8686 2.72808C13.8686 2.87704 13.8094 3.01991 13.7041 3.12524C13.5987 3.23057 13.4559 3.28975 13.3069 3.28975C13.1579 3.28975 13.0151 3.23057 12.9097 3.12524C12.8044 3.01991 12.7452 2.87704 12.7452 2.72808ZM7.99989 6.02675C8.10211 6.02675 8.20434 6.02875 8.30656 6.03275C8.30488 6.05375 8.30221 6.07466 8.29856 6.09542L8.29722 6.09875L8.29922 6.09208L8.31856 6.03342C9.80122 6.09075 11.1192 6.54675 12.0746 7.23342C13.0992 7.96942 13.6752 8.94208 13.6752 9.96542C13.6752 10.9894 13.0986 11.9621 12.0752 12.6987C11.0512 13.4334 9.61256 13.9041 7.99989 13.9041C6.38722 13.9041 4.94856 13.4334 3.92522 12.6981C2.90056 11.9621 2.32456 10.9894 2.32456 9.96542C2.32456 8.94208 2.90056 7.96942 3.92456 7.23342C4.94856 6.49742 6.38789 6.02608 7.99989 6.02608M1.16656 7.07008C1.16661 6.83737 1.24442 6.61134 1.38762 6.42791C1.53082 6.24447 1.7312 6.11413 1.95695 6.0576C2.18269 6.00107 2.42085 6.02158 2.6336 6.11588C2.84635 6.21018 3.0215 6.37286 3.13122 6.57808C2.59856 6.99808 2.15589 7.49341 1.84189 8.04741C1.64354 7.97215 1.47274 7.83838 1.35213 7.66384C1.23153 7.4893 1.16681 7.28224 1.16656 7.07008ZM14.1579 8.04741C13.8439 7.49408 13.4012 6.99741 12.8686 6.57808C12.9482 6.42933 13.0627 6.30209 13.2022 6.20727C13.3418 6.11244 13.5022 6.05284 13.6698 6.03359C13.8374 6.01433 14.0072 6.03598 14.1647 6.09669C14.3221 6.1574 14.4624 6.25536 14.5737 6.38218C14.685 6.50899 14.7639 6.66089 14.8036 6.82486C14.8434 6.98884 14.8428 7.16 14.8019 7.32369C14.761 7.48738 14.6811 7.63873 14.5689 7.76477C14.4568 7.89082 14.3157 7.9878 14.1579 8.04741Z" fill="white"/>
</svg>
