<svg width="16" height="16" viewBox="0 0 16 16" fill="none" xmlns="http://www.w3.org/2000/svg">
<path fill-rule="evenodd" clip-rule="evenodd" d="M8.62321 15.5439L8.61446 15.5455L8.55794 15.5742L8.54202 15.5775L8.53087 15.5742L8.47436 15.5455C8.46587 15.5428 8.4595 15.5442 8.45525 15.5496L8.45207 15.5578L8.43854 15.909L8.44252 15.9254L8.45048 15.936L8.53326 15.9968L8.5452 16L8.55475 15.9968L8.63754 15.936L8.64709 15.9229L8.65028 15.909L8.63674 15.5587C8.63462 15.5499 8.63011 15.545 8.62321 15.5439ZM8.83416 15.4512L8.82381 15.4528L8.67655 15.5291L8.66859 15.5373L8.6662 15.5463L8.68053 15.8991L8.68451 15.909L8.69087 15.9147L8.85087 15.991C8.86096 15.9938 8.86865 15.9916 8.87396 15.9845L8.87714 15.973L8.85008 15.4692C8.84743 15.4594 8.84212 15.4534 8.83416 15.4512ZM8.265 15.4528C8.26149 15.4506 8.2573 15.4499 8.2533 15.4508C8.24929 15.4517 8.24579 15.4542 8.24351 15.4577L8.23873 15.4692L8.21167 15.973C8.2122 15.9828 8.21671 15.9894 8.2252 15.9927L8.23714 15.991L8.39714 15.9147L8.4051 15.9082L8.40829 15.8991L8.42182 15.5463L8.41943 15.5365L8.41147 15.5283L8.265 15.4528Z" fill="white"/>
<path fill-rule="evenodd" clip-rule="evenodd" d="M15.9841 1.43077C16.0188 1.21361 15.9964 0.990834 15.9192 0.785643C15.842 0.580452 15.7128 0.400357 15.5451 0.264123C15.3774 0.127888 15.1773 0.0404986 14.9657 0.0110598C14.7541 -0.018379 14.5387 0.0112097 14.3419 0.0967435L0.729965 6.00385C-0.218892 6.41571 -0.267449 7.83013 0.729965 8.25676C1.71774 8.68094 2.71976 9.06897 3.73415 9.42013C4.6639 9.73682 5.67803 10.0297 6.49077 10.1126C6.71286 10.3866 6.99226 10.6508 7.27723 10.892C7.71266 11.2612 8.23644 11.641 8.77773 12.0053C9.86191 12.7355 11.0647 13.4337 11.875 13.8882C12.8438 14.4297 14.0036 13.8062 14.1771 12.7174L15.9841 1.43077ZM2.25594 7.1221L14.295 1.89759L12.609 12.4319C11.8138 11.9864 10.6683 11.3194 9.64778 10.6319C9.17746 10.3207 8.72336 9.98408 8.28738 9.6236C8.17087 9.52548 8.05776 9.42313 7.94828 9.31676L11.1013 6.06785C11.2507 5.91401 11.3346 5.70532 11.3347 5.48768C11.3348 5.27004 11.251 5.06129 11.1017 4.90735C10.9525 4.7534 10.75 4.66687 10.5388 4.66679C10.3277 4.66672 10.1251 4.7531 9.97574 4.90694L6.5234 8.46515C5.93912 8.38803 5.12559 8.16487 4.23246 7.86131C3.56755 7.63297 2.90874 7.38621 2.25673 7.12128L2.25594 7.1221Z" fill="white"/>
</svg>
