<svg width="17" height="16" viewBox="0 0 17 16" fill="none" xmlns="http://www.w3.org/2000/svg">
<path fill-rule="evenodd" clip-rule="evenodd" d="M9.12321 15.5436L9.11446 15.5453L9.05794 15.574L9.04202 15.5773L9.03087 15.574L8.97436 15.5453C8.96587 15.5425 8.9595 15.5439 8.95525 15.5494L8.95207 15.5576L8.93854 15.9087L8.94252 15.9251L8.95048 15.9358L9.03326 15.9965L9.0452 15.9998L9.05475 15.9965L9.13754 15.9358L9.14709 15.9227L9.15028 15.9087L9.13674 15.5584C9.13462 15.5497 9.13011 15.5447 9.12321 15.5436ZM9.33416 15.4509L9.32381 15.4526L9.17655 15.5289L9.16859 15.5371L9.1662 15.5461L9.18053 15.8989L9.18451 15.9087L9.19087 15.9145L9.35087 15.9908C9.36096 15.9935 9.36865 15.9913 9.37396 15.9842L9.37714 15.9727L9.35008 15.469C9.34743 15.4591 9.34212 15.4531 9.33416 15.4509ZM8.765 15.4526C8.76149 15.4504 8.7573 15.4497 8.7533 15.4506C8.74929 15.4515 8.74579 15.454 8.74351 15.4575L8.73873 15.469L8.71167 15.9727C8.7122 15.9826 8.71671 15.9891 8.7252 15.9924L8.73714 15.9908L8.89714 15.9145L8.9051 15.9079L8.90829 15.8989L8.92182 15.5461L8.91943 15.5363L8.91147 15.5281L8.765 15.4526Z" fill="url(#paint0_linear_215_4298)"/>
<path fill-rule="evenodd" clip-rule="evenodd" d="M16.4841 1.43077C16.5188 1.21361 16.4964 0.990834 16.4192 0.785643C16.342 0.580452 16.2128 0.400357 16.0451 0.264123C15.8774 0.127888 15.6773 0.0404986 15.4657 0.0110598C15.2541 -0.018379 15.0387 0.0112097 14.8419 0.0967435L1.22996 6.00385C0.281108 6.41571 0.232551 7.83013 1.22996 8.25676C2.21774 8.68094 3.21976 9.06897 4.23415 9.42013C5.1639 9.73682 6.17803 10.0297 6.99077 10.1126C7.21286 10.3866 7.49226 10.6508 7.77723 10.892C8.21266 11.2612 8.73644 11.641 9.27773 12.0053C10.3619 12.7355 11.5647 13.4337 12.375 13.8882C13.3438 14.4297 14.5036 13.8062 14.6771 12.7174L16.4841 1.43077ZM2.75594 7.1221L14.795 1.89759L13.109 12.4319C12.3138 11.9864 11.1683 11.3194 10.1478 10.6319C9.67746 10.3207 9.22336 9.98408 8.78738 9.6236C8.67087 9.52548 8.55776 9.42313 8.44828 9.31676L11.6013 6.06785C11.7507 5.91401 11.8346 5.70532 11.8347 5.48768C11.8348 5.27004 11.751 5.06129 11.6017 4.90735C11.4525 4.7534 11.25 4.66687 11.0388 4.66679C10.8277 4.66672 10.6251 4.7531 10.4757 4.90694L7.0234 8.46515C6.43912 8.38803 5.62559 8.16487 4.73246 7.86131C4.06755 7.63297 3.40874 7.38621 2.75673 7.12128L2.75594 7.1221Z" fill="url(#paint1_linear_215_4298)"/>
<defs>
<linearGradient id="paint0_linear_215_4298" x1="9.22037" y1="15.8074" x2="8.96477" y2="15.4541" gradientUnits="userSpaceOnUse">
<stop stop-color="#34D3FF"/>
<stop offset="1" stop-color="#2C8EFB"/>
</linearGradient>
<linearGradient id="paint1_linear_215_4298" x1="12.7308" y1="9.15643" x2="6.05936" y2="0.504693" gradientUnits="userSpaceOnUse">
<stop stop-color="#34D3FF"/>
<stop offset="1" stop-color="#2C8EFB"/>
</linearGradient>
</defs>
</svg>
