<svg width="17" height="18" viewBox="0 0 17 18" fill="none" xmlns="http://www.w3.org/2000/svg">
<path d="M12.1333 10.667C12.2 10.117 12.25 9.56699 12.25 9.00033C12.25 8.43366 12.2 7.88366 12.1333 7.33366H14.95C15.0833 7.86699 15.1666 8.42533 15.1666 9.00033C15.1666 9.57533 15.0833 10.1337 14.95 10.667M10.6583 15.3003C11.1583 14.3753 11.5416 13.3753 11.8083 12.3337H14.2666C13.4593 13.7239 12.1784 14.777 10.6583 15.3003ZM10.45 10.667H6.54996C6.46663 10.117 6.41663 9.56699 6.41663 9.00033C6.41663 8.43366 6.46663 7.87533 6.54996 7.33366H10.45C10.525 7.87533 10.5833 8.43366 10.5833 9.00033C10.5833 9.56699 10.525 10.117 10.45 10.667ZM8.49996 15.6337C7.80829 14.6337 7.24996 13.5253 6.90829 12.3337H10.0916C9.74996 13.5253 9.19163 14.6337 8.49996 15.6337ZM5.16663 5.66699H2.73329C3.53216 4.27285 4.81217 3.21803 6.33329 2.70033C5.83329 3.62533 5.45829 4.62533 5.16663 5.66699ZM2.73329 12.3337H5.16663C5.45829 13.3753 5.83329 14.3753 6.33329 15.3003C4.81518 14.7772 3.53687 13.7238 2.73329 12.3337ZM2.04996 10.667C1.91663 10.1337 1.83329 9.57533 1.83329 9.00033C1.83329 8.42533 1.91663 7.86699 2.04996 7.33366H4.86663C4.79996 7.88366 4.74996 8.43366 4.74996 9.00033C4.74996 9.56699 4.79996 10.117 4.86663 10.667M8.49996 2.35866C9.19163 3.35866 9.74996 4.47533 10.0916 5.66699H6.90829C7.24996 4.47533 7.80829 3.35866 8.49996 2.35866ZM14.2666 5.66699H11.8083C11.5471 4.635 11.1609 3.63875 10.6583 2.70033C12.1916 3.22533 13.4666 4.28366 14.2666 5.66699ZM8.49996 0.666992C3.89163 0.666992 0.166626 4.41699 0.166626 9.00033C0.166626 11.2105 1.0446 13.3301 2.6074 14.8929C3.38122 15.6667 4.29988 16.2805 5.31093 16.6993C6.32198 17.1181 7.40561 17.3337 8.49996 17.3337C10.7101 17.3337 12.8297 16.4557 14.3925 14.8929C15.9553 13.3301 16.8333 11.2105 16.8333 9.00033C16.8333 7.90598 16.6177 6.82234 16.199 5.8113C15.7802 4.80025 15.1663 3.88159 14.3925 3.10777C13.6187 2.33395 12.7 1.72012 11.689 1.30133C10.6779 0.88254 9.59431 0.666992 8.49996 0.666992Z" fill="url(#paint0_linear_215_4287)"/>
<defs>
<linearGradient id="paint0_linear_215_4287" x1="12.907" y1="11.5003" x2="4.81685" y2="2.26324" gradientUnits="userSpaceOnUse">
<stop stop-color="#34D3FF"/>
<stop offset="1" stop-color="#2C8EFB"/>
</linearGradient>
</defs>
</svg>
