<svg width="18" height="18" viewBox="0 0 18 18" fill="none" xmlns="http://www.w3.org/2000/svg">
<path d="M12.6334 10.6667C12.7001 10.1167 12.7501 9.56675 12.7501 9.00008C12.7501 8.43341 12.7001 7.88341 12.6334 7.33341H15.4501C15.5834 7.86675 15.6667 8.42508 15.6667 9.00008C15.6667 9.57508 15.5834 10.1334 15.4501 10.6667M11.1584 15.3001C11.6584 14.3751 12.0417 13.3751 12.3084 12.3334H14.7667C13.9594 13.7236 12.6785 14.7767 11.1584 15.3001ZM10.9501 10.6667H7.05008C6.96675 10.1167 6.91675 9.56675 6.91675 9.00008C6.91675 8.43341 6.96675 7.87508 7.05008 7.33341H10.9501C11.0251 7.87508 11.0834 8.43341 11.0834 9.00008C11.0834 9.56675 11.0251 10.1167 10.9501 10.6667ZM9.00008 15.6334C8.30841 14.6334 7.75008 13.5251 7.40841 12.3334H10.5917C10.2501 13.5251 9.69175 14.6334 9.00008 15.6334ZM5.66675 5.66675H3.23341C4.03228 4.27261 5.3123 3.21778 6.83341 2.70008C6.33341 3.62508 5.95841 4.62508 5.66675 5.66675ZM3.23341 12.3334H5.66675C5.95841 13.3751 6.33341 14.3751 6.83341 15.3001C5.3153 14.777 4.03699 13.7236 3.23341 12.3334ZM2.55008 10.6667C2.41675 10.1334 2.33341 9.57508 2.33341 9.00008C2.33341 8.42508 2.41675 7.86675 2.55008 7.33341H5.36675C5.30008 7.88341 5.25008 8.43341 5.25008 9.00008C5.25008 9.56675 5.30008 10.1167 5.36675 10.6667M9.00008 2.35841C9.69175 3.35841 10.2501 4.47508 10.5917 5.66675H7.40841C7.75008 4.47508 8.30841 3.35841 9.00008 2.35841ZM14.7667 5.66675H12.3084C12.0472 4.63476 11.661 3.6385 11.1584 2.70008C12.6917 3.22508 13.9667 4.28341 14.7667 5.66675ZM9.00008 0.666748C4.39175 0.666748 0.666748 4.41675 0.666748 9.00008C0.666748 11.2102 1.54472 13.3298 3.10752 14.8926C3.88135 15.6665 4.80001 16.2803 5.81105 16.6991C6.8221 17.1179 7.90573 17.3334 9.00008 17.3334C11.2102 17.3334 13.3298 16.4554 14.8926 14.8926C16.4554 13.3298 17.3334 11.2102 17.3334 9.00008C17.3334 7.90573 17.1179 6.8221 16.6991 5.81105C16.2803 4.80001 15.6665 3.88135 14.8926 3.10752C14.1188 2.3337 13.2002 1.71987 12.1891 1.30109C11.1781 0.882296 10.0944 0.666748 9.00008 0.666748Z" fill="white"/>
</svg>
