<svg width="32" height="32" viewBox="0 0 32 32" fill="none" xmlns="http://www.w3.org/2000/svg">
<rect width="32" height="32" rx="4" fill="#E84142"/>
<path d="M20.4269 16.5908C20.6905 16.1418 21.3451 16.1418 21.6059 16.5908L24.4071 21.3763C24.6707 21.8253 24.3404 22.3843 23.8161 22.3843H18.2137C17.6894 22.3843 17.362 21.8253 17.6228 21.3763L20.424 16.5908H20.4269Z" fill="white"/>
<path d="M18.7348 13.4042C18.9897 12.9581 18.9897 12.4077 18.7348 11.9587L16.4377 7.95241C16.1799 7.5034 15.5368 7.5034 15.279 7.95241L7.59085 21.3733C7.33303 21.8223 7.65457 22.3842 8.1702 22.3842H12.7616C13.2744 22.3842 13.7466 22.1091 14.0015 21.663L18.7319 13.4042H18.7348Z" fill="white"/>
</svg>
