<svg xmlns="http://www.w3.org/2000/svg" width="36" height="34" viewBox="0 0 36 34" fill="none">
    <path d="M33.7814 1L20.3242 11.0109L22.8269 5.10281L33.7814 1Z" fill="#E17726" stroke="#E17726"
        stroke-linecap="round" stroke-linejoin="round" />
    <path d="M2.68262 1L16.0578 11.0929L13.6782 5.10281L2.68262 1Z" fill="#E27625" stroke="#E27625"
        stroke-linecap="round" stroke-linejoin="round" />
    <path d="M28.941 24.1816L25.3306 29.6794L33.0439 31.8129L35.2183 24.3047L28.941 24.1816Z"
        fill="#E27625" stroke="#E27625" stroke-linecap="round" stroke-linejoin="round" />
    <path d="M1.2876 24.3047L3.46209 31.8129L11.1343 29.6794L7.5649 24.1816L1.2876 24.3047Z"
        fill="#E27625" stroke="#E27625" stroke-linecap="round" stroke-linejoin="round" />
    <path d="M10.7238 14.9077L8.59033 18.1489L16.1805 18.4771L15.9344 10.2715L10.7238 14.9077Z"
        fill="#E27625" stroke="#E27625" stroke-linecap="round" stroke-linejoin="round" />
    <path d="M25.781 14.9057L20.4883 10.1875L20.3242 18.4752L27.9144 18.147L25.781 14.9057Z"
        fill="#E27625" stroke="#E27625" stroke-linecap="round" stroke-linejoin="round" />
    <path d="M11.1343 29.6774L15.7294 27.4619L11.7497 24.3438L11.1343 29.6774Z" fill="#E27625"
        stroke="#E27625" stroke-linecap="round" stroke-linejoin="round" />
    <path d="M20.7764 27.4619L25.3305 29.6774L24.7151 24.3438L20.7764 27.4619Z" fill="#E27625"
        stroke="#E27625" stroke-linecap="round" stroke-linejoin="round" />
    <path d="M25.3305 29.6765L20.7764 27.4609L21.1456 30.415L21.1046 31.6868L25.3305 29.6765Z"
        fill="#D5BFB2" stroke="#D5BFB2" stroke-linecap="round" stroke-linejoin="round" />
    <path d="M11.1343 29.6765L15.4012 31.6868L15.3602 30.415L15.7294 27.4609L11.1343 29.6765Z"
        fill="#D5BFB2" stroke="#D5BFB2" stroke-linecap="round" stroke-linejoin="round" />
    <path d="M15.4821 22.3738L11.6665 21.266L14.3333 20.0352L15.4821 22.3738Z" fill="#233447"
        stroke="#233447" stroke-linecap="round" stroke-linejoin="round" />
    <path d="M21.021 22.3738L22.1288 20.0352L24.8366 21.266L21.021 22.3738Z" fill="#233447"
        stroke="#233447" stroke-linecap="round" stroke-linejoin="round" />
    <path d="M11.1344 29.6814L11.7908 24.1836L7.56494 24.3067L11.1344 29.6814Z" fill="#CC6228"
        stroke="#CC6228" stroke-linecap="round" stroke-linejoin="round" />
    <path d="M24.7144 24.1836L25.3298 29.6814L28.9403 24.3067L24.7144 24.1836Z" fill="#CC6228"
        stroke="#CC6228" stroke-linecap="round" stroke-linejoin="round" />
    <path
        d="M27.9144 18.1523L20.3242 18.4806L21.0217 22.3782L22.1295 20.0396L24.8373 21.2705L27.9144 18.1523Z"
        fill="#CC6228" stroke="#CC6228" stroke-linecap="round" stroke-linejoin="round" />
    <path
        d="M11.6674 21.2705L14.3343 20.0396L15.4831 22.3782L16.1805 18.4806L8.59033 18.1523L11.6674 21.2705Z"
        fill="#CC6228" stroke="#CC6228" stroke-linecap="round" stroke-linejoin="round" />
    <path d="M8.58936 18.1523L11.7485 24.3476L11.6665 21.2705L8.58936 18.1523Z" fill="#E27525"
        stroke="#E27525" stroke-linecap="round" stroke-linejoin="round" />
    <path d="M24.8365 21.2705L24.7134 24.3476L27.9136 18.1523L24.8365 21.2705Z" fill="#E27525"
        stroke="#E27525" stroke-linecap="round" stroke-linejoin="round" />
    <path d="M16.1799 18.4805L15.4824 22.3781L16.344 27.0143L16.5492 20.9011L16.1799 18.4805Z"
        fill="#E27525" stroke="#E27525" stroke-linecap="round" stroke-linejoin="round" />
    <path d="M20.3238 18.4805L19.9546 20.9011L20.1187 27.0143L21.0213 22.3781L20.3238 18.4805Z"
        fill="#E27525" stroke="#E27525" stroke-linecap="round" stroke-linejoin="round" />
    <path
        d="M21.0222 22.3773L20.1196 27.0135L20.7761 27.4648L24.7148 24.3466L24.8379 21.2695L21.0222 22.3773Z"
        fill="#F5841F" stroke="#F5841F" stroke-linecap="round" stroke-linejoin="round" />
    <path
        d="M11.6665 21.2695L11.7486 24.3466L15.7283 27.4648L16.3437 27.0135L15.4821 22.3773L11.6665 21.2695Z"
        fill="#F5841F" stroke="#F5841F" stroke-linecap="round" stroke-linejoin="round" />
    <path
        d="M21.1041 31.6862L21.1451 30.4143L20.7759 30.1271H15.6884L15.3602 30.4143L15.4012 31.6862L11.1343 29.6758L12.6113 30.9066L15.6474 32.9991H20.8169L23.853 30.9066L25.33 29.6758L21.1041 31.6862Z"
        fill="#C0AC9D" stroke="#C0AC9D" stroke-linecap="round" stroke-linejoin="round" />
    <path
        d="M20.7751 27.4611L20.1186 27.0098H16.3441L15.7286 27.4611L15.3594 30.4151L15.6876 30.1279H20.7751L21.1443 30.4151L20.7751 27.4611Z"
        fill="#161616" stroke="#161616" stroke-linecap="round" stroke-linejoin="round" />
    <path
        d="M34.3557 11.6673L35.5045 6.12852L33.7813 1L20.7754 10.6826L25.7808 14.9085L32.8377 16.9599L34.3967 15.1547L33.7403 14.6624L34.807 13.6777L33.9865 13.0212L35.0532 12.2007L34.3557 11.6673Z"
        fill="#763E1A" stroke="#763E1A" stroke-linecap="round" stroke-linejoin="round" />
    <path
        d="M1 6.12852L2.14879 11.6673L1.41028 12.2007L2.47701 13.0212L1.65645 13.6777L2.76421 14.6624L2.06673 15.1547L3.6258 16.9599L10.7237 14.9085L15.7291 10.6826L2.68215 1L1 6.12852Z"
        fill="#763E1A" stroke="#763E1A" stroke-linecap="round" stroke-linejoin="round" />
    <path
        d="M32.8369 16.9577L25.7801 14.9062L27.9136 18.1475L24.7134 24.3427L28.9393 24.3017H35.2166L32.8369 16.9577Z"
        fill="#F5841F" stroke="#F5841F" stroke-linecap="round" stroke-linejoin="round" />
    <path
        d="M10.7241 14.9062L3.6262 16.9577L1.2876 24.3017H7.5649L11.7498 24.3427L8.59061 18.1475L10.7241 14.9062Z"
        fill="#F5841F" stroke="#F5841F" stroke-linecap="round" stroke-linejoin="round" />
    <path
        d="M20.3243 18.4806L20.7756 10.6853L22.827 5.10547H13.6777L15.7291 10.6853L16.1804 18.4806L16.3446 20.9423V27.0145H20.1191V20.9423L20.3243 18.4806Z"
        fill="#F5841F" stroke="#F5841F" stroke-linecap="round" stroke-linejoin="round" />
</svg>