<svg width="300" height="90" viewBox="0 0 300 90" fill="none" xmlns="http://www.w3.org/2000/svg">
    <path d="M66.2409 20.9609L46.0234 36.0007L49.7834 27.1248L66.2409 20.9609Z" fill="#E17726"
        stroke="#E17726" stroke-linecap="round" stroke-linejoin="round" />
    <path d="M19.5176 20.9619L39.6117 36.125L36.0367 27.1258L19.5176 20.9619Z" fill="#E27625"
        stroke="#E27625" stroke-linecap="round" stroke-linejoin="round" />
    <path d="M58.9672 55.7881L53.543 64.0477L65.131 67.2529L68.3979 55.973L58.9672 55.7881Z"
        fill="#E27625" stroke="#E27625" stroke-linecap="round" stroke-linejoin="round" />
    <path d="M17.4219 55.973L20.6887 67.2529L32.2151 64.0477L26.8526 55.7881L17.4219 55.973Z"
        fill="#E27625" stroke="#E27625" stroke-linecap="round" stroke-linejoin="round" />
    <path d="M31.5978 41.8568L28.3926 46.7262L39.7957 47.2193L39.4259 34.8916L31.5978 41.8568Z"
        fill="#E27625" stroke="#E27625" stroke-linecap="round" stroke-linejoin="round" />
    <path d="M54.2194 41.858L46.268 34.7695L46.0215 47.2205L57.4246 46.7274L54.2194 41.858Z"
        fill="#E27625" stroke="#E27625" stroke-linecap="round" stroke-linejoin="round" />
    <path d="M32.2148 64.0462L39.1184 60.7177L33.1394 56.0332L32.2148 64.0462Z" fill="#E27625"
        stroke="#E27625" stroke-linecap="round" stroke-linejoin="round" />
    <path d="M46.6992 60.7177L53.5411 64.0462L52.6165 56.0332L46.6992 60.7177Z" fill="#E27625"
        stroke="#E27625" stroke-linecap="round" stroke-linejoin="round" />
    <path d="M53.543 64.0453L46.7012 60.7168L47.2559 65.1548L47.1943 67.0656L53.543 64.0453Z"
        fill="#D5BFB2" stroke="#D5BFB2" stroke-linecap="round" stroke-linejoin="round" />
    <path d="M32.2168 64.0453L38.6272 67.0656L38.5656 65.1548L39.1203 60.7168L32.2168 64.0453Z"
        fill="#D5BFB2" stroke="#D5BFB2" stroke-linecap="round" stroke-linejoin="round" />
    <path d="M38.75 53.0739L33.0176 51.4097L37.0241 49.5605L38.75 53.0739Z" fill="#233447"
        stroke="#233447" stroke-linecap="round" stroke-linejoin="round" />
    <path d="M47.0723 53.0739L48.7365 49.5605L52.8047 51.4097L47.0723 53.0739Z" fill="#233447"
        stroke="#233447" stroke-linecap="round" stroke-linejoin="round" />
    <path d="M32.218 64.0457L33.2042 55.7861L26.8555 55.9711L32.218 64.0457Z" fill="#CC6228"
        stroke="#CC6228" stroke-linecap="round" stroke-linejoin="round" />
    <path d="M52.6211 55.7861L53.5457 64.0457L58.9699 55.9711L52.6211 55.7861Z" fill="#CC6228"
        stroke="#CC6228" stroke-linecap="round" stroke-linejoin="round" />
    <path
        d="M57.4285 46.7256L46.0254 47.2187L47.0732 53.0744L48.7375 49.561L52.8056 51.4101L57.4285 46.7256Z"
        fill="#CC6228" stroke="#CC6228" stroke-linecap="round" stroke-linejoin="round" />
    <path
        d="M33.0194 51.4101L37.0259 49.561L38.7518 53.0744L39.7996 47.2187L28.3965 46.7256L33.0194 51.4101Z"
        fill="#CC6228" stroke="#CC6228" stroke-linecap="round" stroke-linejoin="round" />
    <path d="M28.3945 46.7256L33.1407 56.033L33.0174 51.4101L28.3945 46.7256Z" fill="#E27525"
        stroke="#E27525" stroke-linecap="round" stroke-linejoin="round" />
    <path d="M52.8041 51.4101L52.6191 56.033L57.4269 46.7256L52.8041 51.4101Z" fill="#E27525"
        stroke="#E27525" stroke-linecap="round" stroke-linejoin="round" />
    <path d="M39.7979 47.2188L38.75 53.0744L40.0444 60.0396L40.3526 50.8554L39.7979 47.2188Z"
        fill="#E27525" stroke="#E27525" stroke-linecap="round" stroke-linejoin="round" />
    <path d="M46.0215 47.2188L45.4668 50.8554L45.7134 60.0396L47.0694 53.0744L46.0215 47.2188Z"
        fill="#E27525" stroke="#E27525" stroke-linecap="round" stroke-linejoin="round" />
    <path
        d="M47.0709 53.0744L45.7148 60.0395L46.7011 60.7176L52.6184 56.033L52.8033 51.4102L47.0709 53.0744Z"
        fill="#F5841F" stroke="#F5841F" stroke-linecap="round" stroke-linejoin="round" />
    <path
        d="M33.0176 51.4102L33.1409 56.033L39.1198 60.7176L40.0444 60.0395L38.75 53.0744L33.0176 51.4102Z"
        fill="#F5841F" stroke="#F5841F" stroke-linecap="round" stroke-linejoin="round" />
    <path
        d="M47.193 67.0672L47.2546 65.1564L46.6999 64.7249H39.0567L38.5636 65.1564L38.6253 67.0672L32.2148 64.0469L34.4338 65.896L38.9951 69.0396H46.7615L51.3228 65.896L53.5418 64.0469L47.193 67.0672Z"
        fill="#C0AC9D" stroke="#C0AC9D" stroke-linecap="round" stroke-linejoin="round" />
    <path
        d="M46.7007 60.7181L45.7145 60.04H40.0438L39.1192 60.7181L38.5645 65.156L39.0576 64.7246H46.7007L47.2555 65.156L46.7007 60.7181Z"
        fill="#161616" stroke="#161616" stroke-linecap="round" stroke-linejoin="round" />
    <path
        d="M67.1035 36.9879L68.8294 28.6667L66.2406 20.9619L46.7012 35.5086L54.2211 41.8574L64.8229 44.9393L67.1652 42.2272L66.1789 41.4875L67.7816 40.0082L66.5488 39.022L68.1514 37.7892L67.1035 36.9879Z"
        fill="#763E1A" stroke="#763E1A" stroke-linecap="round" stroke-linejoin="round" />
    <path
        d="M16.9922 28.6667L18.7181 36.9879L17.6086 37.7892L19.2112 39.022L17.9784 40.0082L19.6426 41.4875L18.5948 42.2272L20.9371 44.9393L31.6005 41.8574L39.1204 35.5086L19.5194 20.9619L16.9922 28.6667Z"
        fill="#763E1A" stroke="#763E1A" stroke-linecap="round" stroke-linejoin="round" />
    <path
        d="M64.8216 44.9393L54.2198 41.8574L57.425 46.7269L52.6172 56.0343L58.966 55.9726H68.3967L64.8216 44.9393Z"
        fill="#F5841F" stroke="#F5841F" stroke-linecap="round" stroke-linejoin="round" />
    <path
        d="M31.5987 41.8574L20.9353 44.9393L17.4219 55.9726H26.8526L33.1397 56.0343L28.3935 46.7269L31.5987 41.8574Z"
        fill="#F5841F" stroke="#F5841F" stroke-linecap="round" stroke-linejoin="round" />
    <path
        d="M46.0245 47.2201L46.7025 35.5088L49.7845 27.126H36.0391L39.121 35.5088L39.799 47.2201L40.0456 50.9185V60.041H45.7163V50.9185L46.0245 47.2201Z"
        fill="#F5841F" stroke="#F5841F" stroke-linecap="round" stroke-linejoin="round" />
    <path
        d="M252.412 45.2161C251.056 44.2916 249.576 43.6752 248.097 42.8739C247.173 42.3808 246.186 41.8877 245.385 41.2096C244.029 40.1002 244.276 37.8812 245.755 36.8949C247.789 35.5389 251.179 36.2786 251.549 39.0523C251.549 39.1139 251.611 39.1756 251.672 39.1756H254.754C254.816 39.1756 254.877 39.1139 254.877 39.0523C254.692 37.1415 253.953 35.5389 252.597 34.491C251.302 33.5048 249.823 33.0117 248.22 33.0117C240.084 33.0117 239.345 41.6411 243.721 44.3532C244.214 44.6614 248.529 46.8187 250.07 47.805C251.611 48.7295 252.042 50.4554 251.426 51.8115C250.809 53.0442 249.268 53.9072 247.727 53.7839C246.001 53.6606 244.707 52.736 244.214 51.3184C244.152 51.0718 244.091 50.5787 244.091 50.3321C244.091 50.2705 244.029 50.2089 243.967 50.2089H240.639C240.577 50.2089 240.516 50.2705 240.516 50.3321C240.516 52.736 241.132 54.0921 242.735 55.3249C244.276 56.496 245.94 56.9891 247.727 56.9891C252.289 56.9891 254.631 54.4003 255.124 51.7498C255.494 49.161 254.754 46.8188 252.412 45.2161Z"
        fill="white" />
    <path
        d="M107.13 33.5049H105.651H104.048C103.987 33.5049 103.925 33.5665 103.925 33.5665L101.151 42.6274C101.09 42.7507 100.966 42.7507 100.905 42.6274L98.131 33.5665C98.131 33.5049 98.0694 33.5049 98.0077 33.5049H96.4051H94.9258H92.9534C92.8917 33.5049 92.8301 33.5665 92.8301 33.6282V56.7426C92.8301 56.8042 92.8917 56.8659 92.9534 56.8659H96.2818C96.3435 56.8659 96.4051 56.8042 96.4051 56.7426V39.1756C96.4051 39.0523 96.59 38.9907 96.6517 39.114L99.4254 48.2365L99.6103 48.8529C99.6103 48.9145 99.672 48.9145 99.7336 48.9145H102.322C102.384 48.9145 102.446 48.8529 102.446 48.8529L102.631 48.2365L105.404 39.114C105.466 38.9907 105.651 38.9907 105.651 39.1756V56.7426C105.651 56.8042 105.713 56.8659 105.774 56.8659H109.103C109.164 56.8659 109.226 56.8042 109.226 56.7426V33.6282C109.226 33.5665 109.164 33.5049 109.103 33.5049H107.13Z"
        fill="white" />
    <path
        d="M201.19 33.5049C201.128 33.5049 201.067 33.5665 201.067 33.5665L198.293 42.6274C198.231 42.7507 198.108 42.7507 198.046 42.6274L195.273 33.5665C195.273 33.5049 195.211 33.5049 195.149 33.5049H190.033C189.972 33.5049 189.91 33.5665 189.91 33.6282V56.7426C189.91 56.8042 189.972 56.8659 190.033 56.8659H193.362C193.424 56.8659 193.485 56.8042 193.485 56.7426V39.1756C193.485 39.0523 193.67 38.9907 193.732 39.114L196.505 48.2365L196.69 48.8529C196.69 48.9145 196.752 48.9145 196.814 48.9145H199.402C199.464 48.9145 199.526 48.8529 199.526 48.8529L199.711 48.2365L202.484 39.114C202.546 38.9907 202.731 38.9907 202.731 39.1756V56.7426C202.731 56.8042 202.793 56.8659 202.854 56.8659H206.183C206.244 56.8659 206.306 56.8042 206.306 56.7426V33.6282C206.306 33.5665 206.244 33.5049 206.183 33.5049H201.19Z"
        fill="white" />
    <path
        d="M158.043 33.5049H151.817H148.489H142.201C142.14 33.5049 142.078 33.5665 142.078 33.6282V36.5252C142.078 36.5868 142.14 36.6484 142.201 36.6484H148.304V56.7426C148.304 56.8042 148.365 56.8659 148.427 56.8659H151.755C151.817 56.8659 151.879 56.8042 151.879 56.7426V36.6484H157.981C158.043 36.6484 158.104 36.5868 158.104 36.5252V33.6282C158.166 33.5665 158.104 33.5049 158.043 33.5049Z"
        fill="white" />
    <path
        d="M177.768 56.865H180.789C180.85 56.865 180.912 56.8034 180.912 56.6801L174.625 33.504C174.625 33.4424 174.563 33.4424 174.502 33.4424H173.33H171.296H170.125C170.064 33.4424 170.002 33.504 170.002 33.504L163.715 56.6801C163.715 56.7417 163.776 56.865 163.838 56.865H166.858C166.92 56.865 166.982 56.8034 166.982 56.8034L168.831 50.0231C168.831 49.9615 168.892 49.9615 168.954 49.9615H175.673C175.734 49.9615 175.796 50.0231 175.796 50.0231L177.645 56.8034C177.645 56.8034 177.707 56.865 177.768 56.865ZM169.755 46.633L172.221 37.5722C172.283 37.4489 172.406 37.4489 172.468 37.5722L174.933 46.633C174.933 46.6947 174.871 46.8179 174.81 46.8179H169.94C169.817 46.8179 169.755 46.6947 169.755 46.633Z"
        fill="white" />
    <path
        d="M229.667 56.865H232.687C232.749 56.865 232.81 56.8034 232.81 56.6801L226.523 33.504C226.523 33.4424 226.462 33.4424 226.4 33.4424H225.229H223.195H222.024C221.962 33.4424 221.9 33.504 221.9 33.504L215.613 56.6801C215.613 56.7417 215.675 56.865 215.737 56.865H218.757C218.818 56.865 218.88 56.8034 218.88 56.8034L220.729 50.0231C220.729 49.9615 220.791 49.9615 220.853 49.9615H227.571C227.633 49.9615 227.694 50.0231 227.694 50.0231L229.544 56.8034C229.544 56.8034 229.605 56.865 229.667 56.865ZM221.654 46.633L224.119 37.5722C224.181 37.4489 224.304 37.4489 224.366 37.5722L226.831 46.633C226.831 46.6947 226.77 46.8179 226.708 46.8179H221.839C221.715 46.8179 221.654 46.6947 221.654 46.633Z"
        fill="white" />
    <path
        d="M122.786 53.4141V46.2641C122.786 46.2024 122.848 46.1408 122.909 46.1408H131.847C131.908 46.1408 131.97 46.0791 131.97 46.0175V43.1205C131.97 43.0589 131.908 42.9972 131.847 42.9972H122.909C122.848 42.9972 122.786 42.9356 122.786 42.8739V36.7717C122.786 36.7101 122.848 36.6484 122.909 36.6484H133.018C133.08 36.6484 133.141 36.5868 133.141 36.5252V33.6282C133.141 33.5665 133.08 33.5049 133.018 33.5049H122.786H119.334C119.273 33.5049 119.211 33.5665 119.211 33.6282V36.6484V43.0589V46.2024V53.599V56.7426C119.211 56.8042 119.273 56.8659 119.334 56.8659H122.786H133.449C133.511 56.8659 133.573 56.8042 133.573 56.7426V53.7223C133.573 53.6607 133.511 53.599 133.449 53.599H122.848C122.848 53.5374 122.786 53.4758 122.786 53.4141Z"
        fill="white" />
    <path
        d="M282.985 56.6185L271.397 44.6606C271.336 44.599 271.336 44.5373 271.397 44.4757L281.814 33.6273C281.876 33.5657 281.814 33.4424 281.752 33.4424H277.499C277.438 33.4424 277.438 33.4424 277.438 33.504L268.562 42.7498C268.5 42.8114 268.377 42.7498 268.377 42.6882V33.6889C268.377 33.6273 268.315 33.5657 268.254 33.5657H264.864C264.802 33.5657 264.74 33.6273 264.74 33.6889V56.8034C264.74 56.865 264.802 56.9267 264.864 56.9267H268.192C268.254 56.9267 268.315 56.865 268.315 56.8034V46.633C268.315 46.5097 268.439 46.4481 268.5 46.5714L278.486 56.9267L278.547 56.9883H282.8C282.985 56.865 283.047 56.6801 282.985 56.6185Z"
        fill="white" />
</svg>
    