<svg width="32" height="32" viewBox="0 0 32 32" fill="none" xmlns="http://www.w3.org/2000/svg">
<rect width="32" height="32" rx="4" fill="#FF0420"/>
<path d="M16 6C10.5 6 6 10.5 6 16C6 21.5 10.5 26 16 26C21.5 26 26 21.5 26 16C26 10.5 21.5 6 16 6ZM16 21.1V24.85C12.15 24.85 9.05 21.75 9.05 17.9C9.05 14.05 12.15 10.95 16 10.95V7.2C19.85 7.2 22.95 10.3 22.95 14.15C22.95 18 19.85 21.1 16 21.1Z" fill="white"/>
<path d="M16.0301 11.8333H15.9693C15.0569 13.6449 13.6578 15.0338 11.833 15.9396C13.6578 16.9058 15.0569 18.2947 15.9693 20.1667H16.0301C16.9425 18.3551 18.3415 16.9662 20.1663 16.0604C18.3415 15.0942 16.9425 13.7053 16.0301 11.8333Z" fill="white"/>
</svg>
