<svg width="32" height="32" viewBox="0 0 32 32" fill="none" xmlns="http://www.w3.org/2000/svg">
<rect width="32" height="32" rx="4" fill="#001B2A"/>
<path fill-rule="evenodd" clip-rule="evenodd" d="M15.9745 26C18.9453 26 21.6142 24.7112 23.45 22.6635C22.596 21.9232 21.3091 21.8782 20.3999 22.61L20.2262 22.7498C18.5616 24.0895 16.1361 23.8917 14.7118 22.2999C13.935 21.4318 12.6046 21.3432 11.719 22.1005L9.7164 23.813C11.4316 25.1816 13.6072 26 15.9745 26ZM19.2251 21.1577C20.8106 19.8815 23.0392 19.9273 24.5641 21.1598C25.4756 19.6534 26 17.8878 26 16C26 13.9023 25.3525 11.9555 24.246 10.3476C23.5326 10.1961 22.7594 10.373 22.1725 10.8918L22.0055 11.0395C20.4046 12.4545 17.9725 12.3685 16.4761 10.844C15.6599 10.0126 14.3269 9.98527 13.4772 10.7826L11.1468 12.9694L9.86484 11.6102L12.1952 9.42342C13.7869 7.92982 16.284 7.98097 17.8129 9.53849C18.6117 10.3523 19.9101 10.3982 20.7647 9.64283L20.9317 9.49518C21.4504 9.03664 22.0506 8.72754 22.679 8.56496C20.9029 6.97041 18.5523 6 15.9745 6C10.8852 6 6.68159 9.78257 6.03521 14.6829C7.58104 13.943 9.48781 14.2277 10.7482 15.5152C11.5439 16.3279 12.8251 16.4137 13.7226 15.7143L15.0256 14.699C16.663 13.4229 18.9779 13.4847 20.5446 14.8463L23.0813 17.0507L21.8524 18.4578L19.3157 16.2533C18.4247 15.4791 17.1085 15.4439 16.1773 16.1696L14.8744 17.1849C13.2255 18.4698 10.8716 18.3122 9.40969 16.8189C8.55959 15.9506 7.16925 15.9203 6.28196 16.7508L6 17.0147C6.21101 19.1033 7.06637 21.0023 8.3648 22.5107L10.5012 20.6838C12.1603 19.265 14.6524 19.4311 16.1076 21.0573C16.8679 21.9071 18.1627 22.0127 19.0514 21.2975L19.2251 21.1577Z" fill="#9E1F19"/>
</svg>
